# xmcd CD database file
#
# Track frame offsets:
#	150
#	31195
#	65300
#
# Disc length: 1283 seconds
#
# Revision: 0
# Processed by: cddbd v1.5PL3 Copyright (c) Steve Scherf et al.
# Submitted via: CDex 1.50Beta7
#
DISCID=1b050103
DTITLE=ＣＨＵＢ ＤＵ - Green Green
DYEAR=2001
DGENRE=Japanese Rock
TTITLE0=noise, silent〜Nothing hidden
TTITLE1=いる
TTITLE2=Green Green
EXTD=YEAR: 2001
EXTT0=
EXTT1=
EXTT2=
PLAYORDER=
